<?xml version="1.0" encoding="utf-8"?>
<!-- Generator: Adobe Illustrator 16.0.4, SVG Export Plug-In . SVG Version: 6.00 Build 0)  -->
<!DOCTYPE svg PUBLIC "-//W3C//DTD SVG 1.1//EN" "http://www.w3.org/Graphics/SVG/1.1/DTD/svg11.dtd">
<svg version="1.1" id="Ebene_1" xmlns="http://www.w3.org/2000/svg" xmlns:xlink="http://www.w3.org/1999/xlink" x="0px" y="0px"
	 width="300px" height="300px" viewBox="0 0 300 300" enable-background="new 0 0 300 300" xml:space="preserve">
<path fill="#1D1D1B" d="M232.356,161.031l5.399,26.916l-28.184-12.708l-28.169,12.708l5.358-26.916l-22.783-19.061l31.496-3.872
	l14.098-24.515l14.112,24.515l31.496,3.872L232.356,161.031z M118.793,157.896c0-51.13,39.596-94.352,93.93-108.423
	c-12.095-3.108-24.911-4.799-38.204-4.799c-72.959,0-132.134,50.694-132.134,113.223c0,62.555,59.175,113.275,132.134,113.275
	c13.293,0,26.109-1.689,38.204-4.826C158.389,252.303,118.793,209.053,118.793,157.896"/>
</svg>
