<?xml version="1.0" encoding="utf-8"?>
<!-- Generator: Adobe Illustrator 16.0.4, SVG Export Plug-In . SVG Version: 6.00 Build 0)  -->
<!DOCTYPE svg PUBLIC "-//W3C//DTD SVG 1.1//EN" "http://www.w3.org/Graphics/SVG/1.1/DTD/svg11.dtd">
<svg version="1.1" id="Ebene_1" xmlns="http://www.w3.org/2000/svg" xmlns:xlink="http://www.w3.org/1999/xlink" x="0px" y="0px"
	 width="300px" height="300px" viewBox="0 0 300 300" enable-background="new 0 0 300 300" xml:space="preserve">
<path d="M154.502,35.505c-64.892,0-117.497,52.616-117.497,117.498c0,64.887,52.604,117.491,117.497,117.491
	c64.888,0,117.492-52.604,117.492-117.491C271.994,88.121,219.39,35.505,154.502,35.505 M165.31,188.582
	c-8.688,0-16.861-4.797-19.658-10.239c0,0-4.677,18.916-5.661,22.576c-1.672,6.175-4.884,12.337-7.868,17.211
	c-4.262,5.562-9.157,1.432-9.747-3.628c-0.197-5.639,0.021-12.315,1.42-18.391c1.541-6.666,10.348-44.77,10.348-44.77
	s-2.568-5.234-2.568-12.993c0-12.173,6.895-21.27,15.517-21.27c7.3,0,10.84,5.617,10.84,12.342c0,7.507-4.688,18.741-7.103,29.154
	c-2.011,8.71,4.283,15.802,12.708,15.802c15.244,0,25.516-19.976,25.516-43.667c0-18.008-11.889-31.482-33.492-31.482
	c-24.401,0-39.612,18.588-39.612,39.35c0,7.146,2.054,12.206,5.3,16.097c1.497,1.803,1.705,2.523,1.169,4.589
	c-0.393,1.508-1.278,5.147-1.639,6.59c-0.535,2.087-2.186,2.818-4.021,2.043c-11.25-4.688-16.49-17.254-16.49-31.373
	c0-23.341,19.287-51.326,57.511-51.326c30.706,0,50.933,22.696,50.933,47.064C208.725,164.498,191.175,188.582,165.31,188.582"/>
</svg>
