<?xml version="1.0" encoding="utf-8"?>
<!-- Generator: Adobe Illustrator 16.0.4, SVG Export Plug-In . SVG Version: 6.00 Build 0)  -->
<!DOCTYPE svg PUBLIC "-//W3C//DTD SVG 1.1//EN" "http://www.w3.org/Graphics/SVG/1.1/DTD/svg11.dtd">
<svg version="1.1" id="Ebene_1" xmlns="http://www.w3.org/2000/svg" xmlns:xlink="http://www.w3.org/1999/xlink" x="0px" y="0px"
	 width="300px" height="300px" viewBox="0 0 300 300" enable-background="new 0 0 300 300" xml:space="preserve">
<path d="M154.94,35.132c-65.547,0-118.415,52.862-118.415,118.398c0,65.547,52.868,117.705,118.415,117.705
	c65.547,0,117.705-52.856,117.705-117.705C272.646,87.994,219.789,35.132,154.94,35.132 M213.438,126.753v3.514
	c0,38.78-29.593,82.481-82.461,82.481c-16.215,0-31.72-4.942-44.4-13.399c2.106,0,4.921,0.71,7.049,0.71
	c13.389,0,26.068-4.933,35.943-12.691c-12.69,0-23.264-8.456-27.487-20.448c2.117,0,3.524,0.72,5.63,0.72
	c2.815,0,4.943,0,7.758-0.72c-13.389-2.815-23.264-14.087-23.264-28.185v-0.698c4.234,2.106,8.457,3.524,13.4,3.524
	c-7.758-4.943-12.701-14.104-12.701-23.968c0-5.641,1.418-10.568,4.234-14.807c14.108,17.622,35.954,28.911,59.916,30.318
	c-0.698-2.128-0.698-4.234-0.698-6.351c0-16.209,12.68-28.895,28.895-28.895c8.457,0,16.204,3.519,21.136,9.166
	c6.352-1.408,12.69-3.536,18.321-7.055c-2.106,7.055-7.049,12.685-12.68,16.215c5.631-0.704,11.272-2.111,16.913-4.233
	C224.012,117.592,219.079,122.53,213.438,126.753"/>
</svg>
